<?xml version="1.0" standalone="no"?>
<!DOCTYPE svg PUBLIC "-//W3C//DTD SVG 20010904//EN"
 "http://www.w3.org/TR/2001/REC-SVG-20010904/DTD/svg10.dtd">
<svg version="1.0" xmlns="http://www.w3.org/2000/svg"
 width="300.000000pt" height="161.000000pt" viewBox="0 0 300.000000 161.000000"
 preserveAspectRatio="xMidYMid meet">
<metadata>
Created by potrace 1.10, written by Peter Selinger 2001-2011
</metadata>
<g transform="translate(0.000000,161.000000) scale(0.100000,-0.100000)"
fill="#000000" stroke="none">
<path d="M1205 1503 c-280 -33 -476 -89 -647 -186 -194 -110 -305 -265 -296
-412 16 -258 353 -484 828 -557 114 -17 508 -17 620 0 415 66 734 249 805 463
27 82 17 188 -25 267 -111 209 -456 377 -862 421 -90 10 -354 13 -423 4z m386
-43 c297 -30 554 -115 722 -242 59 -43 127 -119 127 -140 0 -4 -18 1 -39 13
-36 18 -50 19 -166 13 -125 -7 -126 -7 -150 -37 l-23 -30 -31 25 c-43 37 -94
51 -162 46 -47 -3 -69 -11 -106 -37 l-47 -33 -18 23 c-63 82 -86 104 -137 127
-49 23 -73 27 -182 30 -182 6 -169 28 -169 -296 0 -321 -15 -296 172 -290 152
5 197 19 259 82 30 30 39 35 48 24 6 -7 23 -28 38 -47 67 -83 231 -94 309 -20
13 12 27 19 32 16 4 -4 9 -38 10 -78 1 -40 7 -78 14 -86 17 -21 -5 -35 -105
-67 -443 -138 -992 -109 -1352 72 -74 37 -146 83 -177 114 -17 17 -17 18 16
18 44 0 66 29 66 86 0 23 3 55 6 72 l6 31 22 -32 c11 -18 30 -48 40 -67 41
-72 65 -90 118 -90 27 0 58 5 69 10 14 8 32 6 67 -5 34 -12 63 -15 102 -10 60
8 84 17 118 48 27 25 28 46 2 90 l-21 35 29 10 c61 21 67 125 12 201 -63 86
-177 107 -277 51 l-53 -30 -5 28 c-10 49 -45 107 -78 128 -17 11 -56 27 -86
34 l-54 13 24 18 c45 35 208 98 331 128 218 55 458 73 679 51z m-934 -260 c52
-23 83 -70 83 -127 0 -55 -12 -83 -50 -121 l-31 -32 61 -100 c34 -55 66 -103
71 -106 25 -15 4 -25 -48 -22 l-57 3 -65 107 c-52 85 -71 108 -88 108 -22 0
-23 -3 -23 -110 l0 -110 -50 0 -50 0 0 248 c0 136 4 252 8 258 12 18 33 22
117 23 58 0 91 -5 122 -19z m872 -34 c104 -38 161 -121 161 -234 0 -84 -15
-133 -58 -182 -60 -71 -97 -84 -254 -88 l-138 -4 0 267 0 268 123 -6 c73 -3
140 -12 166 -21z m-1149 -246 c0 -93 -4 -171 -9 -175 -5 -3 -22 20 -37 52 -39
79 -39 167 0 246 15 32 32 55 37 52 5 -4 9 -82 9 -175z m646 149 c64 -30 103
-106 89 -170 l-7 -29 -130 0 -130 0 6 -27 c16 -67 96 -93 160 -54 l31 20 22
-39 23 -38 -44 -21 c-44 -22 -123 -29 -167 -16 -90 28 -143 135 -119 241 28
126 153 188 266 133z m972 -21 c56 -37 82 -96 82 -184 -1 -132 -61 -205 -175
-212 -78 -5 -133 20 -172 80 -25 37 -28 50 -28 127 0 76 3 92 27 132 37 63 93
91 170 86 40 -2 68 -11 96 -29z m381 17 c68 -35 109 -130 98 -225 -14 -120
-96 -197 -199 -188 l-48 5 0 -63 0 -64 -60 0 -60 0 0 270 0 271 75 -2 c42 -1
78 1 82 5 12 11 84 6 112 -9z m-1370 -241 c2 -2 -5 -4 -17 -4 -11 0 -24 -5
-27 -10 -4 -7 -13 -7 -26 0 -30 16 -13 29 29 23 20 -3 39 -7 41 -9z"/>
<path d="M510 1060 l0 -73 50 5 c63 6 80 21 80 68 0 47 -17 62 -80 68 l-50 5
0 -73z m92 5 c6 -30 2 -35 -32 -35 -24 0 -26 3 -22 30 6 40 47 44 54 5z"/>
<path d="M1260 920 l0 -240 98 0 c162 0 243 38 288 134 24 52 31 138 15 181
-5 12 -8 -14 -8 -66 0 -65 -4 -92 -18 -115 -60 -95 -106 -117 -252 -121 l-113
-3 0 231 0 232 128 -5 c70 -2 116 -1 102 3 -14 4 -73 7 -132 8 l-108 1 0 -240z"/>
<path d="M1544 1127 c11 -7 35 -25 55 -41 26 -20 24 -17 -8 13 -24 23 -49 41
-55 40 -6 0 -2 -6 8 -12z"/>
<path d="M1337 1093 c-4 -3 -7 -82 -7 -174 0 -183 -1 -180 63 -178 29 2 28 2
-8 8 l-40 6 -3 168 -2 167 57 0 c64 0 126 -24 157 -59 11 -12 26 -47 33 -79
l13 -57 -5 49 c-10 102 -76 156 -190 156 -34 0 -65 -3 -68 -7z"/>
<path d="M1370 926 l0 -146 46 0 c58 0 111 25 129 61 19 37 19 122 0 159 -19
37 -55 56 -122 65 l-53 7 0 -146z m134 73 c49 -57 28 -157 -37 -178 -61 -21
-67 -12 -67 105 l0 104 39 0 c32 0 44 -6 65 -31z"/>
<path d="M1581 864 c-2 -47 -70 -103 -128 -105 -26 -2 -26 -2 -4 -6 56 -11
150 67 138 114 -4 15 -5 14 -6 -3z"/>
<path d="M901 998 c-13 -7 -31 -23 -39 -35 l-14 -23 86 0 c65 0 86 3 86 13 0
38 -77 67 -119 45z"/>
<path d="M1814 1040 c-31 -12 -72 -65 -84 -108 -37 -134 42 -262 162 -262 47
0 114 37 139 76 30 49 37 141 15 198 -18 48 -76 106 -104 106 -10 0 -4 -7 15
-16 41 -21 62 -44 79 -91 55 -156 -62 -302 -202 -248 -24 9 -49 26 -56 38 -6
12 -16 25 -21 29 -13 8 -21 106 -13 162 8 52 37 89 86 110 36 16 21 21 -16 6z"/>
<path d="M1910 987 c52 -20 72 -59 67 -136 -3 -55 -7 -67 -31 -87 -15 -13 -39
-25 -54 -25 -21 -1 -22 -3 -6 -6 36 -7 74 15 89 52 19 44 19 116 1 159 -16 39
-20 42 -66 50 l-35 6 35 -13z"/>
<path d="M1833 982 c-19 -12 -43 -77 -43 -115 0 -63 33 -126 65 -126 6 0 2 4
-8 10 -25 14 -47 69 -47 114 0 49 25 104 52 115 13 5 16 9 8 9 -8 0 -20 -3
-27 -7z"/>
<path d="M1847 942 c-17 -19 -24 -112 -11 -147 9 -24 49 -36 78 -25 47 17 60
135 20 175 -21 21 -67 19 -87 -3z m69 -34 c20 -60 -14 -131 -43 -91 -16 21
-17 85 -1 101 18 18 36 14 44 -10z"/>
<path d="M2335 1046 c22 -7 52 -25 67 -40 16 -15 28 -23 28 -18 0 13 -58 62
-73 62 -7 0 -23 2 -37 5 -14 3 -7 -1 15 -9z"/>
<path d="M2130 800 l0 -250 40 0 40 0 0 69 0 68 44 -8 c119 -22 196 56 196
197 0 38 -4 75 -9 82 -4 7 -6 -22 -3 -66 3 -61 1 -86 -13 -112 -41 -80 -91
-102 -200 -88 -18 3 -21 -4 -25 -61 -5 -61 -6 -64 -32 -67 l-27 -3 0 238 0
239 27 0 c15 0 30 -5 34 -12 5 -7 8 -5 8 7 0 13 -9 17 -40 17 l-40 0 0 -250z"/>
<path d="M2228 974 c-28 -14 -28 -16 -28 -112 0 -63 4 -102 12 -110 16 -16
109 -15 130 2 21 16 48 77 48 108 0 36 -19 96 -36 113 -20 19 -90 19 -126 -1z
m121 -13 c41 -41 34 -164 -12 -196 -22 -15 -82 -20 -111 -9 -13 5 -16 24 -16
100 0 92 1 94 28 108 38 21 88 20 111 -3z"/>
<path d="M2257 948 c-28 -10 -28 -10 -25 -91 l3 -82 37 -3 c54 -5 78 23 78 91
0 84 -27 109 -93 85z m61 -69 c2 -24 -3 -42 -13 -53 -25 -24 -33 -20 -37 22
-5 58 1 74 25 70 17 -2 23 -11 25 -39z"/>
</g>
</svg>
